# xmcd CD database file
#
# Track frame offsets:
#	150
#	13210
#	27770
#	41262
#	58115
#	73680
#	96692
#	109270
#	124150
#	139415
#	154820
#	168732
#
# Disc length: 2425 seconds
#
# Revision: 10
# Processed by: cddbd v1.5.2PL0 Copyright (c) Steve Scherf et al.
# Submitted via: CDex 1.79
#
DISCID=b109770c
DTITLE=Alison Krauss and The Cox Family - I Know Who Holds Tomorrow
DYEAR=1994
DGENRE=Bluegrass
TTITLE0=Walk Over God's Heaven
TTITLE1=Will There Be Any Stars
TTITLE2=Where No One Stands Alone
TTITLE3=Never Will Give Up
TTITLE4=Remind Me, Dear Lord
TTITLE5=I Know Who Holds Tomorrow 
TTITLE6=Everybody Wants To Go To Heaven
TTITLE7=I'd Rather Have Jesus
TTITLE8=Far Side Bank Of Jordan
TTITLE9=In The Palm Of Your Hand
TTITLE10=Loves Me Like A Rock
TTITLE11=Jewels
EXTD=YEAR: 1994
EXTT0=
EXTT1=
EXTT2=
EXTT3=
EXTT4=
EXTT5=
EXTT6=
EXTT7=
EXTT8=
EXTT9=
EXTT10=
EXTT11=
PLAYORDER=
